<svg xmlns="http://www.w3.org/2000/svg" viewBox="0 0 320 130" version="1.1" x="0px" y="0px"
     width="320px" height="130px" style="enable-background:new 0 0 320 130;">
    <defs>
        <style>
        .st0 {
            /*fill: #00FF99;*/
            fill: #FFFFFF;
        }
        </style>
    </defs>
    <title>logo</title>
<polygon class="st0" points="43.7,0.8 4.4,23.5 45.8,47.4 45.8,127 57.5,120.3 57.5,104.3 57.5,88.4 85.1,72.5 85.1,24.7 "/>
<polygon class="st0" points="2.3,27.1 2.3,72.5 29.9,88.4 29.9,104.3 29.9,120.3 41.6,127 41.6,49.8 "/>
<polygon class="st0" points="215.6,24.6 215.6,31.9 215.6,72.4 223.9,72.4 223.8,66.1 223.8,24.6 "/>
<rect x="215.6" y="6.1" class="st0" width="8.3" height="7.8"/>
<path class="st0" d="M314.1,69.5c-2.5,2-6.1,3-10.8,3h-14.5v-7.2h15.4c1.7,0,3.1-0.4,4-1.1c0.9-0.7,1.4-1.8,1.4-3.2v-5.1
    c0-2.9-1.4-4.3-4.2-4.3h-3.6c-4.5,0-7.9-1-10.1-2.9c-2.2-1.9-3.3-5-3.3-9.2v-2.8c0-4.3,1.2-7.3,3.7-9.2c2.5-1.9,6.1-2.8,10.9-2.8h13
    v7.2h-14c-1.6,0-2.9,0.4-3.9,1.1c-1,0.7-1.5,1.8-1.5,3.2v3.4c0,1.5,0.4,2.5,1.3,3.2c0.9,0.7,2,1.1,3.3,1.1h3.3c4.3,0,7.6,1,9.9,3.1
    c2.3,2.1,3.4,5.1,3.4,9.2v4.3C317.8,64.5,316.6,67.5,314.1,69.5"/>
<path class="st0" d="M138.6,24.6v2.3c-2-1.5-4.2-2.3-7.4-2.3h-3.5c-5.7,0-9.9,1.2-12.5,3.6c-2.6,2.4-4,6.3-4,11.7v1.4v15.6
    c0,5.4,1.3,9.5,4,11.9c2.6,2.4,6.7,3.6,12.3,3.6h3.9c2.8,0,5.2-0.8,7.1-2.1v18.2h8.1V41.3v-1.9V24.6H138.6z M138.7,58.8
    c0,2-0.6,3.5-1.8,4.6c-1.2,1.1-3,1.6-5.4,1.6h-2.4H129h-2.4c-2.4,0-4.1-0.5-5.4-1.6c-1.2-1.1-1.8-2.6-1.8-4.6V37.8
    c0-2,0.6-3.5,1.8-4.6c1.2-1.1,3-1.6,5.4-1.6h2.5h2.5c2.4,0,4.1,0.5,5.4,1.6c1.2,1.1,1.8,2.6,1.8,4.6V58.8z"/>
<path class="st0" d="M171.2,24.6V27c2-1.6,4.6-2.3,7.8-2.3h4.5c5.3,0,9.2,1.2,11.7,3.7c2.6,2.5,3.8,6.4,3.8,11.9v32.2h-8.3V38.3
    c0-1.9-0.6-3.5-1.7-4.6c-1.1-1.1-2.7-1.7-4.6-1.7H178c-2.1,0-3.7,0.6-4.8,1.7c-1,1.1-1.6,2.4-1.6,3.7v35.1h-8.3V24.6H171.2z"/>
<path class="st0" d="M240.4,24.6v14.9v1.9v47.2h8.1V70.3c2,1.3,4.3,2.1,7.1,2.1h3.9c5.6,0,9.7-1.2,12.3-3.6c2.6-2.4,4-6.5,4-11.9
    V41.3v-1.4c0-5.4-1.3-9.3-4-11.7c-2.7-2.4-6.8-3.6-12.5-3.6h-3.5c-3.2,0-5.4,0.8-7.4,2.3v-2.3H240.4z M248.5,37.8
    c0-2,0.6-3.5,1.8-4.6c1.2-1.1,3-1.6,5.4-1.6h2.5h2.5c2.4,0,4.1,0.5,5.4,1.6c1.2,1.1,1.8,2.6,1.8,4.6v21.1c0,2-0.6,3.5-1.8,4.6
    c-1.2,1.1-3,1.6-5.4,1.6h-2.4h-0.1h-2.4c-2.4,0-4.1-0.5-5.4-1.6c-1.2-1.1-1.8-2.6-1.8-4.6V37.8z"/>
</svg>
